<?xml version="1.0" encoding="utf-8" standalone="no"?>
<!DOCTYPE svg PUBLIC "-//W3C//DTD SVG 1.1//EN"
  "http://www.w3.org/Graphics/SVG/1.1/DTD/svg11.dtd">
<svg xmlns:xlink="http://www.w3.org/1999/xlink" width="331.2pt" height="273.6pt" viewBox="0 0 331.2 273.6" xmlns="http://www.w3.org/2000/svg" version="1.1">
 <metadata>
  <rdf:RDF xmlns:dc="http://purl.org/dc/elements/1.1/" xmlns:cc="http://creativecommons.org/ns#" xmlns:rdf="http://www.w3.org/1999/02/22-rdf-syntax-ns#">
   <cc:Work>
    <dc:type rdf:resource="http://purl.org/dc/dcmitype/StillImage"/>
    <dc:date>2025-06-06T11:51:37.836915</dc:date>
    <dc:format>image/svg+xml</dc:format>
    <dc:creator>
     <cc:Agent>
      <dc:title>Matplotlib v3.10.0, https://matplotlib.org/</dc:title>
     </cc:Agent>
    </dc:creator>
   </cc:Work>
  </rdf:RDF>
 </metadata>
 <defs>
  <style type="text/css">*{stroke-linejoin: round; stroke-linecap: butt}</style>
 </defs>
 <g id="figure_1">
  <g id="patch_1">
   <path d="M 0 273.6 
L 331.2 273.6 
L 331.2 0 
L 0 0 
z
" style="fill: #ffffff"/>
  </g>
  <g id="axes_1">
   <g id="patch_2">
    <path d="M 53.847859 224.172864 
L 318.24 224.172864 
L 318.24 12.96 
L 53.847859 12.96 
z
" style="fill: #ffffff"/>
   </g>
   <g id="matplotlib.axis_1">
    <g id="xtick_1">
     <g id="line2d_1">
      <path d="M 65.865684 224.172864 
L 65.865684 12.96 
" clip-path="url(#pefedd12abe)" style="fill: none; stroke: #b0b0b0; stroke-opacity: 0.5; stroke-width: 0.8; stroke-linecap: square"/>
     </g>
     <g id="line2d_2">
      <defs>
       <path id="m64c9533632" d="M 0 0 
L 0 3.5 
" style="stroke: #000000; stroke-width: 0.8"/>
      </defs>
      <g>
       <use xlink:href="#m64c9533632" x="65.865684" y="224.172864" style="stroke: #000000; stroke-width: 0.8"/>
      </g>
     </g>
     <g id="text_1">
      <!-- $\mathdefault{10^{-1}}$ -->
      <g transform="translate(54.602349 239.475044) scale(0.12 -0.12)">
       <defs>
        <path id="CMR17-31" d="M 1702 4058 
C 1702 4192 1696 4192 1606 4192 
C 1357 3916 979 3827 621 3827 
C 602 3827 570 3827 563 3808 
C 557 3795 557 3782 557 3648 
C 755 3648 1088 3686 1344 3839 
L 1344 461 
C 1344 236 1331 160 781 160 
L 589 160 
L 589 0 
C 896 0 1216 0 1523 0 
C 1830 0 2150 0 2458 0 
L 2458 160 
L 2266 160 
C 1715 160 1702 230 1702 458 
L 1702 4058 
z
" transform="scale(0.015625)"/>
        <path id="CMR17-30" d="M 2688 2025 
C 2688 2416 2682 3080 2413 3591 
C 2176 4039 1798 4198 1466 4198 
C 1158 4198 768 4058 525 3597 
C 269 3118 243 2524 243 2025 
C 243 1661 250 1106 448 619 
C 723 -39 1216 -128 1466 -128 
C 1760 -128 2208 -7 2470 600 
C 2662 1042 2688 1559 2688 2025 
z
M 1466 -26 
C 1056 -26 813 325 723 812 
C 653 1188 653 1738 653 2096 
C 653 2588 653 2997 736 3387 
C 858 3929 1216 4096 1466 4096 
C 1728 4096 2067 3923 2189 3400 
C 2272 3036 2278 2607 2278 2096 
C 2278 1680 2278 1169 2202 792 
C 2067 95 1690 -26 1466 -26 
z
" transform="scale(0.015625)"/>
        <path id="CMSY10-0" d="M 4218 1472 
C 4326 1472 4442 1472 4442 1600 
C 4442 1728 4326 1728 4218 1728 
L 755 1728 
C 646 1728 531 1728 531 1600 
C 531 1472 646 1472 755 1472 
L 4218 1472 
z
" transform="scale(0.015625)"/>
       </defs>
       <use xlink:href="#CMR17-31" transform="scale(0.996264)"/>
       <use xlink:href="#CMR17-30" transform="translate(45.690477 0) scale(0.996264)"/>
       <use xlink:href="#CMSY10-0" transform="translate(91.380954 36.153639) scale(0.697382)"/>
       <use xlink:href="#CMR17-31" transform="translate(145.621947 36.153639) scale(0.697382)"/>
      </g>
     </g>
    </g>
    <g id="xtick_2">
     <g id="line2d_3">
      <path d="M 186.04393 224.172864 
L 186.04393 12.96 
" clip-path="url(#pefedd12abe)" style="fill: none; stroke: #b0b0b0; stroke-opacity: 0.5; stroke-width: 0.8; stroke-linecap: square"/>
     </g>
     <g id="line2d_4">
      <g>
       <use xlink:href="#m64c9533632" x="186.04393" y="224.172864" style="stroke: #000000; stroke-width: 0.8"/>
      </g>
     </g>
     <g id="text_2">
      <!-- $\mathdefault{10^{0}}$ -->
      <g transform="translate(178.073848 239.475044) scale(0.12 -0.12)">
       <use xlink:href="#CMR17-31" transform="scale(0.996264)"/>
       <use xlink:href="#CMR17-30" transform="translate(45.690477 0) scale(0.996264)"/>
       <use xlink:href="#CMR17-30" transform="translate(91.380954 36.153639) scale(0.697382)"/>
      </g>
     </g>
    </g>
    <g id="xtick_3">
     <g id="line2d_5">
      <path d="M 306.222175 224.172864 
L 306.222175 12.96 
" clip-path="url(#pefedd12abe)" style="fill: none; stroke: #b0b0b0; stroke-opacity: 0.5; stroke-width: 0.8; stroke-linecap: square"/>
     </g>
     <g id="line2d_6">
      <g>
       <use xlink:href="#m64c9533632" x="306.222175" y="224.172864" style="stroke: #000000; stroke-width: 0.8"/>
      </g>
     </g>
     <g id="text_3">
      <!-- $\mathdefault{10^{1}}$ -->
      <g transform="translate(298.252094 239.475044) scale(0.12 -0.12)">
       <use xlink:href="#CMR17-31" transform="scale(0.996264)"/>
       <use xlink:href="#CMR17-30" transform="translate(45.690477 0) scale(0.996264)"/>
       <use xlink:href="#CMR17-31" transform="translate(91.380954 36.153639) scale(0.697382)"/>
      </g>
     </g>
    </g>
    <g id="xtick_4">
     <g id="line2d_7">
      <defs>
       <path id="mab36b262c9" d="M 0 0 
L 0 2 
" style="stroke: #000000; stroke-width: 0.6"/>
      </defs>
      <g>
       <use xlink:href="#mab36b262c9" x="54.219209" y="224.172864" style="stroke: #000000; stroke-width: 0.6"/>
      </g>
     </g>
    </g>
    <g id="xtick_5">
     <g id="line2d_8">
      <g>
       <use xlink:href="#mab36b262c9" x="60.366629" y="224.172864" style="stroke: #000000; stroke-width: 0.6"/>
      </g>
     </g>
    </g>
    <g id="xtick_6">
     <g id="line2d_9">
      <g>
       <use xlink:href="#mab36b262c9" x="102.042941" y="224.172864" style="stroke: #000000; stroke-width: 0.6"/>
      </g>
     </g>
    </g>
    <g id="xtick_7">
     <g id="line2d_10">
      <g>
       <use xlink:href="#mab36b262c9" x="123.205279" y="224.172864" style="stroke: #000000; stroke-width: 0.6"/>
      </g>
     </g>
    </g>
    <g id="xtick_8">
     <g id="line2d_11">
      <g>
       <use xlink:href="#mab36b262c9" x="138.220198" y="224.172864" style="stroke: #000000; stroke-width: 0.6"/>
      </g>
     </g>
    </g>
    <g id="xtick_9">
     <g id="line2d_12">
      <g>
       <use xlink:href="#mab36b262c9" x="149.866673" y="224.172864" style="stroke: #000000; stroke-width: 0.6"/>
      </g>
     </g>
    </g>
    <g id="xtick_10">
     <g id="line2d_13">
      <g>
       <use xlink:href="#mab36b262c9" x="159.382536" y="224.172864" style="stroke: #000000; stroke-width: 0.6"/>
      </g>
     </g>
    </g>
    <g id="xtick_11">
     <g id="line2d_14">
      <g>
       <use xlink:href="#mab36b262c9" x="167.428084" y="224.172864" style="stroke: #000000; stroke-width: 0.6"/>
      </g>
     </g>
    </g>
    <g id="xtick_12">
     <g id="line2d_15">
      <g>
       <use xlink:href="#mab36b262c9" x="174.397454" y="224.172864" style="stroke: #000000; stroke-width: 0.6"/>
      </g>
     </g>
    </g>
    <g id="xtick_13">
     <g id="line2d_16">
      <g>
       <use xlink:href="#mab36b262c9" x="180.544875" y="224.172864" style="stroke: #000000; stroke-width: 0.6"/>
      </g>
     </g>
    </g>
    <g id="xtick_14">
     <g id="line2d_17">
      <g>
       <use xlink:href="#mab36b262c9" x="222.221187" y="224.172864" style="stroke: #000000; stroke-width: 0.6"/>
      </g>
     </g>
    </g>
    <g id="xtick_15">
     <g id="line2d_18">
      <g>
       <use xlink:href="#mab36b262c9" x="243.383525" y="224.172864" style="stroke: #000000; stroke-width: 0.6"/>
      </g>
     </g>
    </g>
    <g id="xtick_16">
     <g id="line2d_19">
      <g>
       <use xlink:href="#mab36b262c9" x="258.398443" y="224.172864" style="stroke: #000000; stroke-width: 0.6"/>
      </g>
     </g>
    </g>
    <g id="xtick_17">
     <g id="line2d_20">
      <g>
       <use xlink:href="#mab36b262c9" x="270.044919" y="224.172864" style="stroke: #000000; stroke-width: 0.6"/>
      </g>
     </g>
    </g>
    <g id="xtick_18">
     <g id="line2d_21">
      <g>
       <use xlink:href="#mab36b262c9" x="279.560782" y="224.172864" style="stroke: #000000; stroke-width: 0.6"/>
      </g>
     </g>
    </g>
    <g id="xtick_19">
     <g id="line2d_22">
      <g>
       <use xlink:href="#mab36b262c9" x="287.60633" y="224.172864" style="stroke: #000000; stroke-width: 0.6"/>
      </g>
     </g>
    </g>
    <g id="xtick_20">
     <g id="line2d_23">
      <g>
       <use xlink:href="#mab36b262c9" x="294.5757" y="224.172864" style="stroke: #000000; stroke-width: 0.6"/>
      </g>
     </g>
    </g>
    <g id="xtick_21">
     <g id="line2d_24">
      <g>
       <use xlink:href="#mab36b262c9" x="300.72312" y="224.172864" style="stroke: #000000; stroke-width: 0.6"/>
      </g>
     </g>
    </g>
    <g id="text_4">
     <!-- $g^2 \, T/\tau$ -->
     <g transform="translate(167.463293 257.153076) scale(0.14 -0.14)">
      <defs>
       <path id="CMMI12-67" d="M 2163 811 
C 2138 709 2125 683 2042 588 
C 1779 249 1510 128 1312 128 
C 1101 128 902 294 902 734 
C 902 1073 1094 1788 1235 2076 
C 1421 2433 1709 2689 1978 2689 
C 2400 2689 2483 2165 2483 2127 
L 2464 2037 
L 2163 811 
z
M 2560 2395 
C 2477 2580 2298 2816 1978 2816 
C 1280 2816 486 1941 486 990 
C 486 326 890 0 1299 0 
C 1638 0 1939 268 2054 396 
L 1914 -171 
C 1824 -516 1786 -674 1555 -894 
C 1293 -1152 1050 -1152 909 -1152 
C 717 -1152 557 -1139 397 -1089 
C 602 -1033 653 -858 653 -789 
C 653 -689 576 -588 435 -588 
C 282 -588 115 -714 115 -922 
C 115 -1180 378 -1280 922 -1280 
C 1747 -1280 2176 -753 2259 -410 
L 2970 2435 
C 2989 2511 2989 2524 2989 2536 
C 2989 2625 2918 2695 2822 2695 
C 2669 2695 2579 2567 2560 2395 
z
" transform="scale(0.015625)"/>
       <path id="CMR17-32" d="M 2669 989 
L 2554 989 
C 2490 536 2438 459 2413 420 
C 2381 369 1920 369 1830 369 
L 602 369 
C 832 619 1280 1072 1824 1597 
C 2214 1967 2669 2402 2669 3035 
C 2669 3790 2067 4224 1395 4224 
C 691 4224 262 3604 262 3030 
C 262 2780 448 2748 525 2748 
C 589 2748 781 2787 781 3010 
C 781 3207 614 3264 525 3264 
C 486 3264 448 3258 422 3245 
C 544 3790 915 4058 1306 4058 
C 1862 4058 2227 3617 2227 3035 
C 2227 2479 1901 2000 1536 1584 
L 262 146 
L 262 0 
L 2515 0 
L 2669 989 
z
" transform="scale(0.015625)"/>
       <path id="CMMI12-54" d="M 2669 3910 
C 2707 4064 2720 4121 2816 4147 
C 2867 4160 3078 4160 3213 4160 
C 3853 4160 4154 4134 4154 3634 
C 4154 3537 4128 3295 4090 3057 
L 4083 2980 
C 4083 2954 4109 2916 4147 2916 
C 4211 2916 4211 2948 4230 3050 
L 4416 4184 
C 4429 4243 4429 4256 4429 4275 
C 4429 4345 4390 4345 4262 4345 
L 762 4345 
C 614 4345 608 4339 570 4224 
L 179 3070 
C 173 3056 154 2986 154 2980 
C 154 2948 179 2916 218 2916 
C 269 2916 282 2941 307 3024 
C 576 3801 710 4160 1562 4160 
L 1990 4160 
C 2144 4160 2208 4160 2208 4089 
C 2208 4069 2208 4057 2176 3941 
L 1318 499 
C 1254 249 1242 185 563 185 
C 403 185 358 185 358 64 
C 358 0 429 0 461 0 
C 621 0 787 0 947 0 
L 1946 0 
C 2106 0 2278 0 2438 0 
C 2509 0 2573 0 2573 121 
C 2573 185 2528 185 2362 185 
C 1786 185 1786 243 1786 339 
C 1786 346 1786 391 1811 494 
L 2669 3910 
z
" transform="scale(0.015625)"/>
       <path id="CMMI12-3d" d="M 2746 4562 
C 2746 4569 2784 4666 2784 4678 
C 2784 4755 2720 4800 2669 4800 
C 2637 4800 2579 4800 2528 4659 
L 384 -1363 
C 384 -1370 346 -1465 346 -1478 
C 346 -1555 410 -1600 461 -1600 
C 499 -1600 557 -1593 602 -1459 
L 2746 4562 
z
" transform="scale(0.015625)"/>
       <path id="CMMI12-1c" d="M 1837 2408 
L 2899 2408 
C 2982 2408 3194 2408 3194 2612 
C 3194 2752 3072 2752 2957 2752 
L 1197 2752 
C 1050 2752 832 2752 538 2440 
C 371 2255 166 1917 166 1879 
C 166 1841 198 1828 237 1828 
C 282 1828 288 1847 320 1885 
C 653 2408 986 2408 1146 2408 
L 1677 2408 
L 1011 223 
C 979 127 979 114 979 95 
C 979 25 1024 -64 1152 -64 
C 1350 -64 1382 108 1402 203 
L 1837 2408 
z
" transform="scale(0.015625)"/>
      </defs>
      <use xlink:href="#CMMI12-67" transform="scale(0.996264)"/>
      <use xlink:href="#CMR17-32" transform="translate(50.285489 36.153639) scale(0.697382)"/>
      <use xlink:href="#CMMI12-54" transform="translate(99.371209 0) scale(0.996264)"/>
      <use xlink:href="#CMMI12-3d" transform="translate(167.385123 0) scale(0.996264)"/>
      <use xlink:href="#CMMI12-1c" transform="translate(216.160042 0) scale(0.996264)"/>
     </g>
    </g>
   </g>
   <g id="matplotlib.axis_2">
    <g id="ytick_1">
     <g id="line2d_25">
      <path d="M 53.847859 187.424292 
L 318.24 187.424292 
" clip-path="url(#pefedd12abe)" style="fill: none; stroke: #b0b0b0; stroke-opacity: 0.5; stroke-width: 0.8; stroke-linecap: square"/>
     </g>
     <g id="line2d_26">
      <defs>
       <path id="m23c25e5711" d="M 0 0 
L -3.5 0 
" style="stroke: #000000; stroke-width: 0.8"/>
      </defs>
      <g>
       <use xlink:href="#m23c25e5711" x="53.847859" y="187.424292" style="stroke: #000000; stroke-width: 0.8"/>
      </g>
     </g>
     <g id="text_5">
      <!-- $\mathdefault{10^{0}}$ -->
      <g transform="translate(30.907696 191.575382) scale(0.12 -0.12)">
       <use xlink:href="#CMR17-31" transform="scale(0.996264)"/>
       <use xlink:href="#CMR17-30" transform="translate(45.690477 0) scale(0.996264)"/>
       <use xlink:href="#CMR17-30" transform="translate(91.380954 36.153639) scale(0.697382)"/>
      </g>
     </g>
    </g>
    <g id="ytick_2">
     <g id="line2d_27">
      <path d="M 53.847859 141.655008 
L 318.24 141.655008 
" clip-path="url(#pefedd12abe)" style="fill: none; stroke: #b0b0b0; stroke-opacity: 0.5; stroke-width: 0.8; stroke-linecap: square"/>
     </g>
     <g id="line2d_28">
      <g>
       <use xlink:href="#m23c25e5711" x="53.847859" y="141.655008" style="stroke: #000000; stroke-width: 0.8"/>
      </g>
     </g>
     <g id="text_6">
      <!-- $\mathdefault{10^{1}}$ -->
      <g transform="translate(30.907696 145.806098) scale(0.12 -0.12)">
       <use xlink:href="#CMR17-31" transform="scale(0.996264)"/>
       <use xlink:href="#CMR17-30" transform="translate(45.690477 0) scale(0.996264)"/>
       <use xlink:href="#CMR17-31" transform="translate(91.380954 36.153639) scale(0.697382)"/>
      </g>
     </g>
    </g>
    <g id="ytick_3">
     <g id="line2d_29">
      <path d="M 53.847859 95.885724 
L 318.24 95.885724 
" clip-path="url(#pefedd12abe)" style="fill: none; stroke: #b0b0b0; stroke-opacity: 0.5; stroke-width: 0.8; stroke-linecap: square"/>
     </g>
     <g id="line2d_30">
      <g>
       <use xlink:href="#m23c25e5711" x="53.847859" y="95.885724" style="stroke: #000000; stroke-width: 0.8"/>
      </g>
     </g>
     <g id="text_7">
      <!-- $\mathdefault{10^{2}}$ -->
      <g transform="translate(30.907696 100.036814) scale(0.12 -0.12)">
       <use xlink:href="#CMR17-31" transform="scale(0.996264)"/>
       <use xlink:href="#CMR17-30" transform="translate(45.690477 0) scale(0.996264)"/>
       <use xlink:href="#CMR17-32" transform="translate(91.380954 36.153639) scale(0.697382)"/>
      </g>
     </g>
    </g>
    <g id="ytick_4">
     <g id="line2d_31">
      <path d="M 53.847859 50.11644 
L 318.24 50.11644 
" clip-path="url(#pefedd12abe)" style="fill: none; stroke: #b0b0b0; stroke-opacity: 0.5; stroke-width: 0.8; stroke-linecap: square"/>
     </g>
     <g id="line2d_32">
      <g>
       <use xlink:href="#m23c25e5711" x="53.847859" y="50.11644" style="stroke: #000000; stroke-width: 0.8"/>
      </g>
     </g>
     <g id="text_8">
      <!-- $\mathdefault{10^{3}}$ -->
      <g transform="translate(30.907696 54.267529) scale(0.12 -0.12)">
       <defs>
        <path id="CMR17-33" d="M 1414 2157 
C 1984 2157 2234 1662 2234 1090 
C 2234 320 1824 25 1453 25 
C 1114 25 563 194 390 693 
C 422 680 454 680 486 680 
C 640 680 755 782 755 948 
C 755 1133 614 1216 486 1216 
C 378 1216 211 1165 211 926 
C 211 335 787 -128 1466 -128 
C 2176 -128 2720 430 2720 1085 
C 2720 1707 2208 2157 1600 2227 
C 2086 2328 2554 2756 2554 3329 
C 2554 3820 2048 4179 1472 4179 
C 890 4179 378 3829 378 3329 
C 378 3110 544 3072 627 3072 
C 762 3072 877 3155 877 3321 
C 877 3486 762 3569 627 3569 
C 602 3569 570 3569 544 3557 
C 730 3959 1235 4032 1459 4032 
C 1683 4032 2106 3925 2106 3320 
C 2106 3143 2080 2828 1862 2550 
C 1670 2304 1453 2304 1242 2284 
C 1210 2284 1062 2269 1037 2269 
C 992 2263 966 2257 966 2208 
C 966 2163 973 2157 1101 2157 
L 1414 2157 
z
" transform="scale(0.015625)"/>
       </defs>
       <use xlink:href="#CMR17-31" transform="scale(0.996264)"/>
       <use xlink:href="#CMR17-30" transform="translate(45.690477 0) scale(0.996264)"/>
       <use xlink:href="#CMR17-33" transform="translate(91.380954 36.153639) scale(0.697382)"/>
      </g>
     </g>
    </g>
    <g id="ytick_5">
     <g id="line2d_33">
      <defs>
       <path id="m1abd1b6a7d" d="M 0 0 
L -2 0 
" style="stroke: #000000; stroke-width: 0.6"/>
      </defs>
      <g>
       <use xlink:href="#m1abd1b6a7d" x="53.847859" y="219.415649" style="stroke: #000000; stroke-width: 0.6"/>
      </g>
     </g>
    </g>
    <g id="ytick_6">
     <g id="line2d_34">
      <g>
       <use xlink:href="#m1abd1b6a7d" x="53.847859" y="211.356078" style="stroke: #000000; stroke-width: 0.6"/>
      </g>
     </g>
    </g>
    <g id="ytick_7">
     <g id="line2d_35">
      <g>
       <use xlink:href="#m1abd1b6a7d" x="53.847859" y="205.637721" style="stroke: #000000; stroke-width: 0.6"/>
      </g>
     </g>
    </g>
    <g id="ytick_8">
     <g id="line2d_36">
      <g>
       <use xlink:href="#m1abd1b6a7d" x="53.847859" y="201.202219" style="stroke: #000000; stroke-width: 0.6"/>
      </g>
     </g>
    </g>
    <g id="ytick_9">
     <g id="line2d_37">
      <g>
       <use xlink:href="#m1abd1b6a7d" x="53.847859" y="197.57815" style="stroke: #000000; stroke-width: 0.6"/>
      </g>
     </g>
    </g>
    <g id="ytick_10">
     <g id="line2d_38">
      <g>
       <use xlink:href="#m1abd1b6a7d" x="53.847859" y="194.514044" style="stroke: #000000; stroke-width: 0.6"/>
      </g>
     </g>
    </g>
    <g id="ytick_11">
     <g id="line2d_39">
      <g>
       <use xlink:href="#m1abd1b6a7d" x="53.847859" y="191.859794" style="stroke: #000000; stroke-width: 0.6"/>
      </g>
     </g>
    </g>
    <g id="ytick_12">
     <g id="line2d_40">
      <g>
       <use xlink:href="#m1abd1b6a7d" x="53.847859" y="189.51858" style="stroke: #000000; stroke-width: 0.6"/>
      </g>
     </g>
    </g>
    <g id="ytick_13">
     <g id="line2d_41">
      <g>
       <use xlink:href="#m1abd1b6a7d" x="53.847859" y="173.646365" style="stroke: #000000; stroke-width: 0.6"/>
      </g>
     </g>
    </g>
    <g id="ytick_14">
     <g id="line2d_42">
      <g>
       <use xlink:href="#m1abd1b6a7d" x="53.847859" y="165.586794" style="stroke: #000000; stroke-width: 0.6"/>
      </g>
     </g>
    </g>
    <g id="ytick_15">
     <g id="line2d_43">
      <g>
       <use xlink:href="#m1abd1b6a7d" x="53.847859" y="159.868437" style="stroke: #000000; stroke-width: 0.6"/>
      </g>
     </g>
    </g>
    <g id="ytick_16">
     <g id="line2d_44">
      <g>
       <use xlink:href="#m1abd1b6a7d" x="53.847859" y="155.432935" style="stroke: #000000; stroke-width: 0.6"/>
      </g>
     </g>
    </g>
    <g id="ytick_17">
     <g id="line2d_45">
      <g>
       <use xlink:href="#m1abd1b6a7d" x="53.847859" y="151.808866" style="stroke: #000000; stroke-width: 0.6"/>
      </g>
     </g>
    </g>
    <g id="ytick_18">
     <g id="line2d_46">
      <g>
       <use xlink:href="#m1abd1b6a7d" x="53.847859" y="148.74476" style="stroke: #000000; stroke-width: 0.6"/>
      </g>
     </g>
    </g>
    <g id="ytick_19">
     <g id="line2d_47">
      <g>
       <use xlink:href="#m1abd1b6a7d" x="53.847859" y="146.09051" style="stroke: #000000; stroke-width: 0.6"/>
      </g>
     </g>
    </g>
    <g id="ytick_20">
     <g id="line2d_48">
      <g>
       <use xlink:href="#m1abd1b6a7d" x="53.847859" y="143.749295" style="stroke: #000000; stroke-width: 0.6"/>
      </g>
     </g>
    </g>
    <g id="ytick_21">
     <g id="line2d_49">
      <g>
       <use xlink:href="#m1abd1b6a7d" x="53.847859" y="127.87708" style="stroke: #000000; stroke-width: 0.6"/>
      </g>
     </g>
    </g>
    <g id="ytick_22">
     <g id="line2d_50">
      <g>
       <use xlink:href="#m1abd1b6a7d" x="53.847859" y="119.81751" style="stroke: #000000; stroke-width: 0.6"/>
      </g>
     </g>
    </g>
    <g id="ytick_23">
     <g id="line2d_51">
      <g>
       <use xlink:href="#m1abd1b6a7d" x="53.847859" y="114.099153" style="stroke: #000000; stroke-width: 0.6"/>
      </g>
     </g>
    </g>
    <g id="ytick_24">
     <g id="line2d_52">
      <g>
       <use xlink:href="#m1abd1b6a7d" x="53.847859" y="109.663651" style="stroke: #000000; stroke-width: 0.6"/>
      </g>
     </g>
    </g>
    <g id="ytick_25">
     <g id="line2d_53">
      <g>
       <use xlink:href="#m1abd1b6a7d" x="53.847859" y="106.039582" style="stroke: #000000; stroke-width: 0.6"/>
      </g>
     </g>
    </g>
    <g id="ytick_26">
     <g id="line2d_54">
      <g>
       <use xlink:href="#m1abd1b6a7d" x="53.847859" y="102.975476" style="stroke: #000000; stroke-width: 0.6"/>
      </g>
     </g>
    </g>
    <g id="ytick_27">
     <g id="line2d_55">
      <g>
       <use xlink:href="#m1abd1b6a7d" x="53.847859" y="100.321226" style="stroke: #000000; stroke-width: 0.6"/>
      </g>
     </g>
    </g>
    <g id="ytick_28">
     <g id="line2d_56">
      <g>
       <use xlink:href="#m1abd1b6a7d" x="53.847859" y="97.980011" style="stroke: #000000; stroke-width: 0.6"/>
      </g>
     </g>
    </g>
    <g id="ytick_29">
     <g id="line2d_57">
      <g>
       <use xlink:href="#m1abd1b6a7d" x="53.847859" y="82.107796" style="stroke: #000000; stroke-width: 0.6"/>
      </g>
     </g>
    </g>
    <g id="ytick_30">
     <g id="line2d_58">
      <g>
       <use xlink:href="#m1abd1b6a7d" x="53.847859" y="74.048225" style="stroke: #000000; stroke-width: 0.6"/>
      </g>
     </g>
    </g>
    <g id="ytick_31">
     <g id="line2d_59">
      <g>
       <use xlink:href="#m1abd1b6a7d" x="53.847859" y="68.329869" style="stroke: #000000; stroke-width: 0.6"/>
      </g>
     </g>
    </g>
    <g id="ytick_32">
     <g id="line2d_60">
      <g>
       <use xlink:href="#m1abd1b6a7d" x="53.847859" y="63.894367" style="stroke: #000000; stroke-width: 0.6"/>
      </g>
     </g>
    </g>
    <g id="ytick_33">
     <g id="line2d_61">
      <g>
       <use xlink:href="#m1abd1b6a7d" x="53.847859" y="60.270298" style="stroke: #000000; stroke-width: 0.6"/>
      </g>
     </g>
    </g>
    <g id="ytick_34">
     <g id="line2d_62">
      <g>
       <use xlink:href="#m1abd1b6a7d" x="53.847859" y="57.206191" style="stroke: #000000; stroke-width: 0.6"/>
      </g>
     </g>
    </g>
    <g id="ytick_35">
     <g id="line2d_63">
      <g>
       <use xlink:href="#m1abd1b6a7d" x="53.847859" y="54.551941" style="stroke: #000000; stroke-width: 0.6"/>
      </g>
     </g>
    </g>
    <g id="ytick_36">
     <g id="line2d_64">
      <g>
       <use xlink:href="#m1abd1b6a7d" x="53.847859" y="52.210727" style="stroke: #000000; stroke-width: 0.6"/>
      </g>
     </g>
    </g>
    <g id="ytick_37">
     <g id="line2d_65">
      <g>
       <use xlink:href="#m1abd1b6a7d" x="53.847859" y="36.338512" style="stroke: #000000; stroke-width: 0.6"/>
      </g>
     </g>
    </g>
    <g id="ytick_38">
     <g id="line2d_66">
      <g>
       <use xlink:href="#m1abd1b6a7d" x="53.847859" y="28.278941" style="stroke: #000000; stroke-width: 0.6"/>
      </g>
     </g>
    </g>
    <g id="ytick_39">
     <g id="line2d_67">
      <g>
       <use xlink:href="#m1abd1b6a7d" x="53.847859" y="22.560585" style="stroke: #000000; stroke-width: 0.6"/>
      </g>
     </g>
    </g>
    <g id="ytick_40">
     <g id="line2d_68">
      <g>
       <use xlink:href="#m1abd1b6a7d" x="53.847859" y="18.125083" style="stroke: #000000; stroke-width: 0.6"/>
      </g>
     </g>
    </g>
    <g id="ytick_41">
     <g id="line2d_69">
      <g>
       <use xlink:href="#m1abd1b6a7d" x="53.847859" y="14.501014" style="stroke: #000000; stroke-width: 0.6"/>
      </g>
     </g>
    </g>
    <g id="text_9">
     <!-- I$/N$ -->
     <g transform="translate(23.420772 129.5328) rotate(-90) scale(0.14 -0.14)">
      <defs>
       <path id="CMR17-49" d="M 1261 3905 
C 1261 4192 1338 4192 1798 4192 
L 1798 4352 
C 1594 4352 1267 4352 1050 4352 
C 832 4352 506 4352 301 4352 
L 301 4192 
C 762 4192 838 4192 838 3905 
L 838 447 
C 838 160 762 160 301 160 
L 301 0 
C 506 0 832 0 1050 0 
C 1267 0 1594 0 1798 0 
L 1798 160 
C 1338 160 1261 160 1261 447 
L 1261 3905 
z
" transform="scale(0.015625)"/>
       <path id="CMMI12-4e" d="M 4736 3698 
C 4806 3974 4909 4166 5395 4166 
C 5414 4166 5491 4166 5491 4279 
C 5491 4352 5434 4352 5408 4352 
C 5280 4352 4954 4352 4826 4352 
L 4518 4352 
C 4429 4352 4314 4352 4224 4352 
C 4186 4352 4109 4352 4109 4230 
C 4109 4166 4160 4166 4205 4166 
C 4589 4166 4614 4019 4614 3903 
C 4614 3846 4608 3826 4589 3737 
L 3866 850 
L 2496 4249 
C 2451 4352 2445 4352 2304 4352 
L 1523 4352 
C 1395 4352 1338 4352 1338 4230 
C 1338 4166 1382 4166 1504 4166 
C 1536 4166 1914 4166 1914 4115 
C 1914 4102 1901 4051 1894 4032 
L 1043 635 
C 966 320 813 186 390 186 
C 358 186 294 186 294 67 
C 294 0 358 0 378 0 
C 506 0 832 0 960 0 
L 1267 0 
C 1357 0 1466 0 1555 0 
C 1600 0 1670 0 1670 122 
C 1670 180 1606 186 1581 186 
C 1370 186 1165 224 1165 454 
C 1165 505 1178 562 1190 613 
L 2054 4032 
C 2093 3968 2093 3956 2118 3898 
L 3642 115 
C 3674 38 3686 0 3744 0 
C 3808 0 3814 19 3840 128 
L 4736 3698 
z
" transform="scale(0.015625)"/>
      </defs>
      <use xlink:href="#CMR17-49" transform="scale(0.996264)"/>
      <use xlink:href="#CMMI12-3d" transform="translate(32.638409 0) scale(0.996264)"/>
      <use xlink:href="#CMMI12-4e" transform="translate(75.993893 0) scale(0.996264)"/>
     </g>
    </g>
   </g>
   <g id="line2d_70">
    <path d="M 65.865684 214.57228 
L 123.55913 153.381116 
L 150.291007 126.323646 
L 167.882596 110.338317 
L 181.016144 98.31916 
L 191.500361 89.670553 
L 200.226753 82.933883 
L 207.70099 77.294475 
L 214.237736 72.721758 
L 220.046174 68.759013 
L 225.272449 65.374516 
L 230.0227 62.398305 
L 234.37645 59.711348 
L 238.394821 57.372683 
L 242.125808 55.267206 
L 245.607787 53.353527 
L 248.871927 51.559988 
L 251.943888 49.906766 
L 254.845046 48.374032 
L 257.593398 46.95064 
L 260.204239 45.527241 
L 262.690676 44.175498 
L 265.064027 42.99424 
L 267.334133 42.006649 
L 269.509604 41.065811 
L 271.598014 40.134081 
L 273.606065 39.229649 
L 275.539713 38.364585 
L 277.404274 37.45948 
L 279.204516 36.556679 
L 280.944728 35.693106 
L 282.628786 34.897712 
L 284.2602 34.218839 
L 285.842161 33.562387 
L 287.377581 32.926924 
L 288.869119 32.26652 
L 290.319214 31.575759 
L 291.730108 30.908199 
L 293.103863 30.262331 
L 294.442385 29.649186 
L 295.747437 29.109389 
L 297.020651 28.583864 
L 298.263543 28.071877 
L 299.477525 27.572746 
L 300.663911 27.087093 
L 301.823928 26.614994 
L 302.958723 26.153848 
L 304.069368 25.703158 
L 305.156871 25.262461 
L 306.222175 24.831323 
" clip-path="url(#pefedd12abe)" style="fill: none; stroke: #e7ba52; stroke-width: 3; stroke-linecap: square"/>
   </g>
   <g id="line2d_71">
    <path d="M 65.865684 161.082317 
L 123.55913 120.467657 
L 150.291007 101.674214 
L 167.882596 91.119903 
L 181.016144 82.872695 
L 191.500361 76.659984 
L 200.226753 71.984424 
L 207.70099 67.753621 
L 214.237736 64.469561 
L 220.046174 61.466063 
L 225.272449 58.939553 
L 230.0227 56.666855 
L 234.37645 54.477157 
L 238.394821 52.673251 
L 242.125808 50.951069 
L 245.607787 49.313747 
L 248.871927 47.815075 
L 251.943888 46.423942 
L 254.845046 45.089057 
L 257.593398 43.835879 
L 260.204239 42.826098 
L 262.690676 41.90802 
L 265.064027 40.943184 
L 267.334133 39.891375 
L 269.509604 38.892438 
L 271.598014 37.981971 
L 273.606065 37.129004 
L 275.539713 36.311138 
L 277.404274 35.484554 
L 279.204516 34.67086 
L 280.944728 33.88917 
L 282.628786 33.16889 
L 284.2602 32.558974 
L 285.842161 31.967216 
L 287.377581 31.392567 
L 288.869119 30.813959 
L 290.319214 30.228352 
L 291.730108 29.659505 
L 293.103863 29.106485 
L 294.442385 28.567257 
L 295.747437 28.037031 
L 297.020651 27.520583 
L 298.263543 27.017213 
L 299.477525 26.526277 
L 300.663911 26.029059 
L 301.823928 25.515472 
L 302.958723 25.014822 
L 304.069368 24.526472 
L 305.156871 24.049834 
L 306.222175 23.584357 
" clip-path="url(#pefedd12abe)" style="fill: none; stroke: #8ca252; stroke-width: 3; stroke-linecap: square"/>
   </g>
   <g id="line2d_72">
    <path d="M 65.865684 213.697292 
L 73.517322 204.955028 
L 80.189297 197.332062 
L 86.104233 190.574042 
L 91.416552 184.504532 
L 96.237769 178.996122 
L 100.651052 173.953792 
L 104.720079 169.304786 
L 108.494693 164.992157 
L 112.014639 160.970496 
L 115.312119 157.203009 
L 118.413591 153.659469 
L 121.341055 150.31474 
L 124.113002 147.147692 
L 126.745127 144.140397 
L 129.25086 141.27751 
L 131.641786 138.545793 
L 133.927965 135.933754 
L 136.118192 133.431343 
L 138.220198 131.029728 
" clip-path="url(#pefedd12abe)" style="fill: none; stroke-dasharray: 8.14,3.52; stroke-dashoffset: 0; stroke: #808080; stroke-width: 2.2"/>
   </g>
   <g id="line2d_73">
    <path d="M 65.865684 159.868437 
L 73.517322 154.040261 
L 80.189297 148.958284 
L 86.104233 144.452937 
L 91.416552 140.406597 
L 96.237769 136.734324 
L 100.651052 133.37277 
L 104.720079 130.273433 
L 108.494693 127.398347 
L 112.014639 124.71724 
L 115.312119 122.205582 
L 118.413591 119.843222 
L 121.341055 117.613402 
L 124.113002 115.502037 
L 126.745127 113.497174 
L 129.25086 111.588582 
L 131.641786 109.767438 
L 133.927965 108.026078 
L 136.118192 106.357804 
L 138.220198 104.756728 
" clip-path="url(#pefedd12abe)" style="fill: none; stroke-dasharray: 8.14,3.52; stroke-dashoffset: 0; stroke: #808080; stroke-width: 2.2"/>
   </g>
   <g id="line2d_74">
    <path d="M 222.221187 54.551941 
L 232.192885 50.75427 
L 240.561608 47.567084 
L 247.772054 44.821021 
L 254.106211 42.408689 
L 259.754175 40.25769 
L 264.850195 38.316897 
L 269.492609 36.548856 
L 273.75561 34.925314 
L 277.696557 33.424424 
L 281.36071 32.028949 
L 284.784413 30.72505 
L 287.997288 29.501442 
L 291.023803 28.348809 
L 293.884395 27.259367 
L 296.596317 26.226545 
L 299.174261 25.244748 
L 301.630843 24.309171 
L 303.97698 23.415656 
L 306.222175 22.560585 
" clip-path="url(#pefedd12abe)" style="fill: none; stroke-dasharray: 8.14,3.52; stroke-dashoffset: 0; stroke: #808080; stroke-width: 2.2"/>
   </g>
   <g id="patch_3">
    <path d="M 53.847859 224.172864 
L 53.847859 12.96 
" style="fill: none; stroke: #000000; stroke-width: 0.8; stroke-linejoin: miter; stroke-linecap: square"/>
   </g>
   <g id="patch_4">
    <path d="M 318.24 224.172864 
L 318.24 12.96 
" style="fill: none; stroke: #000000; stroke-width: 0.8; stroke-linejoin: miter; stroke-linecap: square"/>
   </g>
   <g id="patch_5">
    <path d="M 53.847859 224.172864 
L 318.24 224.172864 
" style="fill: none; stroke: #000000; stroke-width: 0.8; stroke-linejoin: miter; stroke-linecap: square"/>
   </g>
   <g id="patch_6">
    <path d="M 53.847859 12.96 
L 318.24 12.96 
" style="fill: none; stroke: #000000; stroke-width: 0.8; stroke-linejoin: miter; stroke-linecap: square"/>
   </g>
   <g id="text_10">
    <!-- \textit{weak backaction} -->
    <g style="fill: #808080" transform="translate(68.869676 79.286299) scale(0.12 -0.12)">
     <defs>
      <path id="CMTI12-77" d="M 2394 1086 
C 2349 894 2342 741 2342 690 
C 2342 600 2144 64 1798 64 
C 1427 64 1357 402 1357 619 
C 1357 900 1466 1277 1677 1865 
C 1773 2127 1798 2191 1798 2318 
C 1798 2574 1645 2816 1331 2816 
C 749 2816 531 1878 531 1839 
C 531 1782 589 1782 621 1782 
C 698 1782 704 1801 730 1890 
C 781 2082 947 2689 1318 2689 
C 1395 2689 1466 2657 1466 2503 
C 1466 2344 1402 2178 1267 1807 
C 1056 1233 986 932 986 703 
C 986 77 1459 -64 1786 -64 
C 1952 -64 2170 -26 2400 358 
C 2541 -26 2931 -64 3104 -64 
C 3590 -64 3840 364 4013 824 
C 4109 1086 4378 2024 4378 2408 
C 4378 2733 4250 2816 4134 2816 
C 4013 2816 3853 2695 3853 2548 
C 3853 2491 3866 2459 3923 2395 
C 4070 2222 4090 1986 4090 1884 
C 4090 1635 3885 952 3789 715 
C 3654 370 3450 64 3123 64 
C 2797 64 2707 345 2707 600 
C 2707 779 2752 952 2835 1284 
C 2880 1475 2995 1941 3046 2127 
C 3085 2286 3155 2567 3155 2599 
C 3155 2695 3078 2753 2995 2753 
C 2816 2753 2771 2593 2746 2503 
L 2394 1086 
z
" transform="scale(0.015625)"/>
      <path id="CMTI12-65" d="M 1472 1473 
C 1696 1473 2899 1473 2899 2282 
C 2899 2572 2662 2816 2285 2816 
C 1619 2816 730 2165 730 1041 
C 730 396 1062 -64 1606 -64 
C 2400 -64 2925 577 2925 667 
C 2925 711 2874 762 2835 762 
C 2816 762 2810 756 2758 699 
C 2419 242 1939 64 1613 64 
C 1190 64 1133 565 1133 768 
C 1133 1048 1178 1226 1242 1473 
L 1472 1473 
z
M 1280 1600 
C 1536 2624 2163 2689 2278 2689 
C 2534 2689 2682 2509 2682 2290 
C 2682 1600 1619 1600 1414 1600 
L 1280 1600 
z
" transform="scale(0.015625)"/>
      <path id="CMTI12-61" d="M 3040 2440 
C 3059 2510 3059 2529 3059 2542 
C 3059 2612 3008 2695 2893 2695 
C 2688 2695 2643 2446 2643 2446 
L 2637 2440 
C 2515 2740 2298 2816 2125 2816 
C 1427 2816 691 1839 691 907 
C 691 338 992 -64 1427 -64 
C 1690 -64 1952 102 2195 390 
C 2266 0 2554 -64 2701 -64 
C 2950 -64 3078 121 3162 307 
C 3270 530 3347 894 3347 913 
C 3347 971 3290 971 3264 971 
C 3187 971 3181 964 3142 817 
C 3014 287 2893 64 2714 64 
C 2573 64 2541 198 2541 319 
C 2541 415 2566 562 2592 658 
L 3040 2440 
z
M 2234 773 
C 2195 607 1811 64 1440 64 
C 1101 64 1088 562 1088 639 
C 1088 958 1293 1712 1395 1967 
C 1562 2363 1850 2689 2125 2689 
C 2509 2689 2554 2120 2554 2076 
C 2554 2069 2534 1999 2534 1986 
L 2234 773 
z
" transform="scale(0.015625)"/>
      <path id="CMTI12-6b" d="M 1907 4276 
C 1920 4314 1926 4339 1926 4358 
C 1926 4416 1882 4416 1779 4416 
L 1139 4358 
C 1050 4353 992 4347 992 4232 
C 992 4169 1043 4169 1133 4169 
C 1453 4169 1453 4111 1453 4048 
C 1453 4023 1440 3959 1434 3933 
L 499 211 
C 480 128 474 115 474 96 
C 474 13 531 -64 640 -64 
C 819 -64 858 102 870 147 
L 1203 1469 
C 1357 1450 1850 1348 1850 920 
C 1850 888 1850 856 1837 792 
C 1805 664 1805 632 1805 543 
C 1805 89 2086 -64 2323 -64 
C 2560 -64 2714 102 2822 307 
C 2944 524 3027 881 3027 913 
C 3027 971 2970 971 2944 971 
C 2867 971 2861 964 2822 817 
C 2733 453 2611 64 2336 64 
C 2221 64 2144 134 2144 332 
C 2144 473 2144 485 2202 709 
C 2234 830 2234 856 2234 926 
C 2234 1405 1690 1539 1395 1590 
C 1581 1692 1709 1839 1965 2139 
C 2195 2420 2451 2689 2746 2689 
C 2874 2689 2931 2618 2938 2606 
C 2720 2574 2669 2414 2669 2318 
C 2669 2184 2771 2133 2867 2133 
C 3014 2133 3162 2254 3162 2459 
C 3162 2625 3040 2816 2758 2816 
C 2381 2816 2099 2478 1850 2184 
C 1491 1756 1363 1705 1248 1654 
L 1907 4276 
z
" transform="scale(0.015625)"/>
      <path id="CMTI12-62" d="M 1907 4276 
C 1920 4320 1926 4339 1926 4358 
C 1926 4416 1882 4416 1779 4416 
L 1139 4358 
C 1050 4353 992 4347 992 4232 
C 992 4169 1043 4169 1133 4169 
C 1453 4169 1453 4111 1453 4048 
C 1453 4016 1440 3972 1434 3940 
L 787 1358 
C 730 1128 730 962 730 892 
C 730 286 1037 -64 1434 -64 
C 2150 -64 2874 932 2874 1846 
C 2874 2401 2579 2816 2138 2816 
C 1818 2816 1555 2561 1453 2459 
L 1907 4276 
z
M 1440 64 
C 1152 64 1062 409 1062 677 
C 1062 926 1133 1181 1274 1756 
C 1293 1820 1306 1884 1325 1948 
C 1389 2197 1779 2689 2118 2689 
C 2349 2689 2470 2452 2470 2114 
C 2470 1756 2253 958 2125 690 
C 1901 243 1638 64 1440 64 
z
" transform="scale(0.015625)"/>
      <path id="CMTI12-63" d="M 2752 2368 
C 2592 2368 2451 2246 2451 2093 
C 2451 1933 2592 1902 2650 1902 
C 2714 1902 2950 1940 2950 2275 
C 2950 2578 2682 2816 2291 2816 
C 1510 2816 704 1916 704 971 
C 704 319 1094 -64 1606 -64 
C 2400 -64 2925 578 2925 668 
C 2925 712 2874 763 2835 763 
C 2816 763 2810 757 2758 700 
C 2419 242 1939 64 1613 64 
C 1286 64 1114 351 1114 728 
C 1114 1022 1267 1724 1478 2088 
C 1696 2472 2010 2689 2285 2689 
C 2323 2689 2662 2689 2752 2368 
z
" transform="scale(0.015625)"/>
      <path id="CMTI12-74" d="M 1638 2566 
L 2170 2566 
C 2278 2566 2342 2566 2342 2681 
C 2342 2752 2298 2752 2189 2752 
L 1683 2752 
L 1939 3762 
C 1946 3775 1952 3833 1952 3846 
C 1952 3904 1907 4000 1786 4000 
C 1626 4000 1568 3859 1542 3762 
L 1293 2752 
L 749 2752 
C 634 2752 576 2752 576 2630 
C 576 2566 627 2566 730 2566 
L 1248 2566 
L 787 728 
C 755 600 755 524 755 498 
C 755 204 928 -64 1280 -64 
C 1907 -64 2227 881 2227 913 
C 2227 971 2170 971 2144 971 
C 2074 971 2067 958 2035 888 
C 1958 690 1709 64 1293 64 
C 1197 64 1107 109 1107 319 
C 1107 415 1133 562 1158 658 
L 1638 2566 
z
" transform="scale(0.015625)"/>
      <path id="CMTI12-69" d="M 2042 3969 
C 2042 4090 1952 4160 1843 4160 
C 1728 4160 1562 4058 1562 3879 
C 1562 3739 1664 3688 1760 3688 
C 1888 3688 2042 3803 2042 3969 
z
M 864 722 
C 813 581 813 498 813 441 
C 813 70 1062 -64 1274 -64 
C 1862 -64 2067 888 2067 913 
C 2067 971 2010 971 1984 971 
C 1907 971 1901 952 1875 856 
C 1818 639 1651 64 1286 64 
C 1216 64 1139 96 1139 249 
C 1139 415 1229 645 1344 958 
L 1722 1993 
C 1779 2152 1792 2203 1792 2318 
C 1792 2644 1581 2816 1331 2816 
C 742 2816 531 1871 531 1839 
C 531 1782 589 1782 621 1782 
C 698 1782 704 1801 730 1890 
C 781 2095 947 2689 1318 2689 
C 1459 2689 1459 2567 1459 2497 
C 1459 2331 1421 2222 1376 2108 
L 864 722 
z
" transform="scale(0.015625)"/>
      <path id="CMTI12-6f" d="M 3181 1782 
C 3181 2446 2771 2816 2291 2816 
C 1510 2816 704 1916 704 971 
C 704 281 1133 -64 1594 -64 
C 2374 -64 3181 849 3181 1782 
z
M 1600 64 
C 1331 64 1114 294 1114 728 
C 1114 1022 1267 1724 1478 2088 
C 1715 2497 2042 2689 2278 2689 
C 2605 2689 2771 2389 2771 2024 
C 2771 1750 2618 1028 2413 677 
C 2150 224 1824 64 1600 64 
z
" transform="scale(0.015625)"/>
      <path id="CMTI12-6e" d="M 1587 1731 
C 1626 1871 1971 2689 2586 2689 
C 2880 2689 2880 2369 2880 2261 
C 2880 1865 2598 1098 2490 786 
C 2432 626 2406 568 2406 434 
C 2406 128 2605 -64 2867 -64 
C 3462 -64 3667 888 3667 913 
C 3667 971 3610 971 3584 971 
C 3507 971 3501 952 3475 856 
C 3418 639 3245 64 2886 64 
C 2790 64 2739 109 2739 255 
C 2739 409 2810 607 2861 734 
C 3027 1201 3245 1795 3245 2165 
C 3245 2503 3098 2816 2605 2816 
C 2208 2816 1907 2586 1696 2299 
C 1677 2586 1478 2816 1184 2816 
C 1037 2816 870 2753 736 2478 
C 614 2242 531 1858 531 1846 
C 531 1795 563 1782 621 1782 
C 691 1782 698 1788 736 1935 
C 832 2312 954 2689 1171 2689 
C 1338 2689 1338 2503 1338 2427 
C 1338 2305 1312 2165 1286 2076 
L 819 211 
C 794 121 794 115 794 89 
C 794 13 845 -64 960 -64 
C 1107 -64 1171 51 1197 160 
L 1587 1731 
z
" transform="scale(0.015625)"/>
     </defs>
     <use xlink:href="#CMTI12-77" transform="scale(0.996264)"/>
     <use xlink:href="#CMTI12-65" transform="translate(64.757784 0) scale(0.996264)"/>
     <use xlink:href="#CMTI12-61" transform="translate(104.60877 0) scale(0.996264)"/>
     <use xlink:href="#CMTI12-6b" transform="translate(154.422442 0) scale(0.996264)"/>
     <use xlink:href="#CMTI12-62" transform="translate(234.124338 0) scale(0.996264)"/>
     <use xlink:href="#CMTI12-61" transform="translate(273.975324 0) scale(0.996264)"/>
     <use xlink:href="#CMTI12-63" transform="translate(323.788996 0) scale(0.996264)"/>
     <use xlink:href="#CMTI12-6b" transform="translate(368.621332 0) scale(0.996264)"/>
     <use xlink:href="#CMTI12-61" transform="translate(413.453669 0) scale(0.996264)"/>
     <use xlink:href="#CMTI12-63" transform="translate(463.26734 0) scale(0.996264)"/>
     <use xlink:href="#CMTI12-74" transform="translate(508.099677 0) scale(0.996264)"/>
     <use xlink:href="#CMTI12-69" transform="translate(540.478607 0) scale(0.996264)"/>
     <use xlink:href="#CMTI12-6f" transform="translate(570.366831 0) scale(0.996264)"/>
     <use xlink:href="#CMTI12-6e" transform="translate(620.180503 0) scale(0.996264)"/>
    </g>
   </g>
   <g id="text_11">
    <!-- \textit{strong backaction} -->
    <g style="fill: #808080" transform="translate(218.201408 79.286299) scale(0.12 -0.12)">
     <defs>
      <path id="CMTI12-73" d="M 2445 2348 
C 2214 2323 2202 2129 2202 2104 
C 2202 2033 2246 1943 2374 1943 
C 2522 1943 2630 2059 2630 2277 
C 2630 2573 2374 2816 1965 2816 
C 1197 2816 973 2165 973 1890 
C 973 1654 1094 1520 1152 1456 
C 1261 1354 1382 1322 1658 1258 
C 1818 1226 2144 1150 2144 798 
C 2144 626 1990 64 1286 64 
C 1056 64 736 152 666 448 
C 973 448 973 713 973 727 
C 973 862 858 914 774 914 
C 723 914 474 888 474 542 
C 474 157 838 -64 1280 -64 
C 2176 -64 2458 645 2458 990 
C 2458 1539 2003 1641 1696 1712 
C 1523 1750 1293 1801 1293 2088 
C 1293 2254 1434 2689 1952 2689 
C 2214 2689 2400 2554 2445 2348 
z
" transform="scale(0.015625)"/>
      <path id="CMTI12-72" d="M 1613 1827 
C 1632 1903 1920 2689 2458 2689 
C 2490 2689 2669 2689 2810 2600 
C 2714 2575 2592 2479 2592 2318 
C 2592 2184 2694 2133 2790 2133 
C 2906 2133 3078 2216 3078 2446 
C 3078 2772 2643 2816 2464 2816 
C 2170 2816 1926 2676 1690 2344 
C 1632 2721 1357 2816 1184 2816 
C 1037 2816 870 2753 736 2478 
C 614 2242 531 1858 531 1846 
C 531 1795 563 1782 621 1782 
C 691 1782 698 1788 736 1935 
C 832 2312 954 2689 1171 2689 
C 1338 2689 1338 2503 1338 2427 
C 1338 2305 1312 2165 1286 2076 
L 819 211 
C 794 121 794 115 794 89 
C 794 13 845 -64 960 -64 
C 1107 -64 1171 57 1197 160 
L 1613 1827 
z
" transform="scale(0.015625)"/>
      <path id="CMTI12-67" d="M 3040 2441 
C 3059 2511 3059 2530 3059 2543 
C 3059 2612 3008 2695 2893 2695 
C 2746 2695 2662 2562 2650 2453 
L 2643 2453 
C 2579 2600 2419 2816 2125 2816 
C 1446 2816 704 1890 704 958 
C 704 370 1024 0 1446 0 
C 1786 0 2074 295 2118 339 
L 1914 -479 
C 1843 -674 1600 -1152 1082 -1152 
C 1011 -1152 794 -1152 627 -1083 
C 768 -1026 826 -902 826 -813 
C 826 -732 768 -632 621 -632 
C 493 -632 333 -739 333 -940 
C 333 -1180 582 -1280 1075 -1280 
C 1728 -1280 2208 -867 2336 -365 
L 3040 2441 
z
M 2246 830 
C 2195 619 1805 128 1459 128 
C 1114 128 1101 619 1101 696 
C 1101 1003 1293 1724 1395 1967 
C 1555 2363 1843 2689 2125 2689 
C 2509 2689 2560 2139 2560 2101 
C 2560 2088 2554 2056 2541 1999 
L 2246 830 
z
" transform="scale(0.015625)"/>
     </defs>
     <use xlink:href="#CMTI12-73" transform="scale(0.996264)"/>
     <use xlink:href="#CMTI12-74" transform="translate(39.851092 0) scale(0.996264)"/>
     <use xlink:href="#CMTI12-72" transform="translate(72.230022 0) scale(0.996264)"/>
     <use xlink:href="#CMTI12-6f" transform="translate(108.345064 0) scale(0.996264)"/>
     <use xlink:href="#CMTI12-6e" transform="translate(158.158736 0) scale(0.996264)"/>
     <use xlink:href="#CMTI12-67" transform="translate(212.953834 0) scale(0.996264)"/>
     <use xlink:href="#CMTI12-62" transform="translate(292.65573 0) scale(0.996264)"/>
     <use xlink:href="#CMTI12-61" transform="translate(332.506716 0) scale(0.996264)"/>
     <use xlink:href="#CMTI12-63" transform="translate(382.320388 0) scale(0.996264)"/>
     <use xlink:href="#CMTI12-6b" transform="translate(427.152724 0) scale(0.996264)"/>
     <use xlink:href="#CMTI12-61" transform="translate(471.985061 0) scale(0.996264)"/>
     <use xlink:href="#CMTI12-63" transform="translate(521.798733 0) scale(0.996264)"/>
     <use xlink:href="#CMTI12-74" transform="translate(566.631069 0) scale(0.996264)"/>
     <use xlink:href="#CMTI12-69" transform="translate(599.009999 0) scale(0.996264)"/>
     <use xlink:href="#CMTI12-6f" transform="translate(628.898223 0) scale(0.996264)"/>
     <use xlink:href="#CMTI12-6e" transform="translate(678.711895 0) scale(0.996264)"/>
    </g>
   </g>
   <g id="text_12">
    <!-- FI$\propto T^3$ -->
    <g transform="translate(80.503541 209.504399) scale(0.12 -0.12)">
     <defs>
      <path id="CMR17-46" d="M 3482 4325 
L 326 4325 
L 326 4160 
C 768 4160 838 4160 838 3874 
L 838 446 
C 838 160 768 160 326 160 
L 326 0 
C 512 0 870 0 1069 0 
C 1331 0 1638 0 1901 0 
L 1901 160 
L 1760 160 
C 1274 160 1261 223 1261 452 
L 1261 2075 
L 1837 2075 
C 2432 2075 2490 1865 2490 1332 
L 2605 1332 
L 2605 2987 
L 2490 2987 
C 2490 2450 2432 2240 1837 2240 
L 1261 2240 
L 1261 3911 
C 1261 4128 1274 4160 1530 4160 
L 2355 4160 
C 3322 4160 3430 3765 3520 2916 
L 3635 2916 
L 3482 4325 
z
" transform="scale(0.015625)"/>
      <path id="CMSY10-2f" d="M 4621 205 
C 4595 205 4493 192 4474 192 
C 3968 192 3629 691 3411 1024 
C 3347 1133 3174 1395 3104 1504 
C 3258 1850 3686 2643 4448 2643 
C 4493 2643 4550 2643 4621 2624 
C 4621 2790 4614 2797 4602 2810 
C 4557 2822 4461 2829 4403 2829 
C 3590 2829 3117 2048 2963 1728 
C 2707 2118 2618 2259 2381 2458 
C 1990 2797 1638 2829 1478 2829 
C 768 2829 358 2112 358 1376 
C 358 659 755 -70 1459 -70 
C 2272 -70 2746 710 2899 1030 
C 3155 640 3245 499 3482 301 
C 3872 -38 4224 -70 4384 -70 
C 4461 -70 4563 -58 4621 -44 
L 4621 205 
z
M 2758 1254 
C 2605 909 2176 115 1414 115 
C 794 115 499 794 499 1376 
C 499 2010 858 2566 1389 2566 
C 1894 2566 2234 2067 2451 1734 
C 2515 1626 2688 1363 2758 1254 
z
" transform="scale(0.015625)"/>
     </defs>
     <use xlink:href="#CMR17-46" transform="scale(0.996264)"/>
     <use xlink:href="#CMR17-49" transform="translate(59.983847 0) scale(0.996264)"/>
     <use xlink:href="#CMSY10-2f" transform="translate(92.622256 0) scale(0.996264)"/>
     <use xlink:href="#CMMI12-54" transform="translate(197.783732 0) scale(0.996264)"/>
     <use xlink:href="#CMR17-33" transform="translate(268.507364 36.153639) scale(0.697382)"/>
    </g>
   </g>
   <g id="text_13">
    <!-- FI$\propto T$ -->
    <g transform="translate(238.702249 30.862765) scale(0.12 -0.12)">
     <use xlink:href="#CMR17-46" transform="scale(0.996264)"/>
     <use xlink:href="#CMR17-49" transform="translate(59.983847 0) scale(0.996264)"/>
     <use xlink:href="#CMSY10-2f" transform="translate(92.622256 0) scale(0.996264)"/>
     <use xlink:href="#CMMI12-54" transform="translate(197.783732 0) scale(0.996264)"/>
    </g>
   </g>
   <g id="text_14">
    <!-- FI$\propto T^2$ -->
    <g transform="translate(64.840257 128.119689) scale(0.12 -0.12)">
     <use xlink:href="#CMR17-46" transform="scale(0.996264)"/>
     <use xlink:href="#CMR17-49" transform="translate(59.983847 0) scale(0.996264)"/>
     <use xlink:href="#CMSY10-2f" transform="translate(92.622256 0) scale(0.996264)"/>
     <use xlink:href="#CMMI12-54" transform="translate(197.783732 0) scale(0.996264)"/>
     <use xlink:href="#CMR17-32" transform="translate(268.507364 36.153639) scale(0.697382)"/>
    </g>
   </g>
   <g id="legend_1">
    <g id="patch_7">
     <path d="M 143.995972 218.172864 
L 309.84 218.172864 
Q 312.24 218.172864 312.24 215.772864 
L 312.24 183.523673 
Q 312.24 181.123673 309.84 181.123673 
L 143.995972 181.123673 
Q 141.595972 181.123673 141.595972 183.523673 
L 141.595972 215.772864 
Q 141.595972 218.172864 143.995972 218.172864 
z
" style="fill: #ffffff; opacity: 0.8; stroke: #cccccc; stroke-linejoin: miter"/>
    </g>
    <g id="line2d_75">
     <path d="M 146.395972 190.123673 
L 155.395972 190.123673 
L 164.395972 190.123673 
" style="fill: none; stroke: #e7ba52; stroke-width: 3; stroke-linecap: square"/>
    </g>
    <g id="text_15">
     <!-- Weak measurements only -->
     <g transform="translate(173.995972 194.323673) scale(0.12 -0.12)">
      <defs>
       <path id="CMR17-57" d="M 5523 3764 
C 5581 3936 5677 4160 6048 4160 
L 6048 4326 
C 5939 4326 5715 4326 5600 4326 
C 5440 4326 5158 4326 5005 4332 
L 5005 4160 
C 5293 4160 5414 4000 5414 3847 
C 5414 3802 5408 3777 5382 3707 
L 4390 555 
L 3347 3873 
C 3328 3937 3322 3963 3322 3988 
C 3322 4160 3603 4160 3725 4160 
L 3725 4326 
C 3539 4326 3219 4326 3021 4326 
C 2861 4326 2573 4326 2426 4332 
L 2426 4160 
C 2720 4160 2797 4141 2861 4027 
C 2886 3969 2989 3638 2989 3619 
C 2989 3593 2976 3555 2970 3536 
L 2029 561 
L 986 3867 
C 954 3957 954 3969 954 3982 
C 954 4160 1235 4160 1363 4160 
L 1363 4326 
C 1178 4326 858 4326 659 4326 
C 493 4326 211 4326 58 4332 
L 58 4160 
C 442 4160 467 4122 531 3918 
L 1779 -20 
C 1811 -115 1811 -128 1869 -128 
C 1920 -128 1939 -115 1965 -26 
L 3053 3433 
L 4141 -26 
C 4166 -115 4186 -128 4237 -128 
C 4294 -128 4294 -115 4326 -20 
L 5523 3764 
z
" transform="scale(0.015625)"/>
       <path id="CMR17-65" d="M 2438 1472 
C 2464 1498 2464 1511 2464 1576 
C 2464 2238 2118 2816 1389 2816 
C 710 2816 173 2169 173 1383 
C 173 551 781 -64 1459 -64 
C 2176 -64 2458 607 2458 740 
C 2458 784 2419 784 2406 784 
C 2362 784 2355 771 2330 696 
C 2189 265 1837 51 1504 51 
C 1229 51 954 203 781 480 
C 582 803 582 1176 582 1472 
L 2438 1472 
z
M 589 1568 
C 634 2505 1126 2714 1382 2714 
C 1818 2714 2112 2297 2118 1568 
L 589 1568 
z
" transform="scale(0.015625)"/>
       <path id="CMR17-61" d="M 2304 1653 
C 2304 2072 2304 2294 2035 2543 
C 1798 2752 1523 2816 1306 2816 
C 800 2816 435 2407 435 1971 
C 435 1728 627 1728 666 1728 
C 749 1728 896 1778 896 1954 
C 896 2112 774 2181 666 2181 
C 640 2181 608 2174 589 2168 
C 723 2592 1069 2714 1293 2714 
C 1613 2714 1965 2429 1965 1885 
L 1965 1600 
C 1587 1600 1133 1549 774 1357 
C 371 1133 256 813 256 570 
C 256 77 832 -64 1171 -64 
C 1523 -64 1850 139 1990 511 
C 2003 233 2182 -18 2464 -18 
C 2598 -18 2938 70 2938 567 
L 2938 920 
L 2822 920 
L 2822 562 
C 2822 178 2650 128 2566 128 
C 2304 128 2304 458 2304 738 
L 2304 1653 
z
M 1965 870 
C 1965 317 1568 38 1216 38 
C 896 38 646 275 646 570 
C 646 761 730 1100 1101 1305 
C 1408 1478 1760 1504 1965 1504 
L 1965 870 
z
" transform="scale(0.015625)"/>
       <path id="CMR17-6b" d="M 1670 1673 
C 1664 1686 1632 1724 1632 1743 
C 1632 1756 2086 2171 2144 2222 
C 2509 2528 2739 2560 2906 2560 
L 2906 2733 
C 2867 2733 2854 2733 2848 2720 
L 2534 2720 
C 2355 2720 2080 2720 1907 2733 
L 1907 2566 
C 1997 2559 2061 2508 2061 2419 
C 2061 2291 1933 2170 1926 2170 
L 960 1289 
L 960 4396 
L 198 4326 
L 198 4160 
C 576 4160 634 4122 634 3817 
L 634 426 
C 634 184 608 153 198 153 
L 198 -13 
C 352 0 634 0 794 0 
C 954 0 1235 0 1389 -13 
L 1389 153 
C 979 153 954 178 954 428 
L 954 1130 
L 1395 1532 
L 2042 574 
C 2118 459 2182 369 2182 286 
C 2182 172 2067 153 1990 153 
L 1990 -13 
C 2144 0 2419 0 2579 0 
C 2694 0 2931 0 3040 0 
L 3040 153 
C 2739 153 2669 210 2477 491 
L 1670 1673 
z
" transform="scale(0.015625)"/>
       <path id="CMR17-6d" d="M 4326 1933 
C 4326 2252 4269 2790 3507 2790 
C 3072 2790 2771 2496 2656 2151 
L 2650 2151 
C 2573 2676 2195 2790 1837 2790 
C 1331 2790 1069 2400 973 2144 
L 966 2144 
L 966 2790 
L 211 2720 
L 211 2554 
C 589 2554 646 2515 646 2208 
L 646 428 
C 646 184 621 153 211 153 
L 211 -13 
C 365 0 646 0 813 0 
C 979 0 1267 0 1421 -13 
L 1421 153 
C 1011 153 986 178 986 428 
L 986 1658 
C 986 2247 1344 2688 1792 2688 
C 2266 2688 2317 2266 2317 1958 
L 2317 428 
C 2317 184 2291 153 1882 153 
L 1882 -13 
C 2035 0 2317 0 2483 0 
C 2650 0 2938 0 3091 -13 
L 3091 153 
C 2682 153 2656 178 2656 428 
L 2656 1658 
C 2656 2247 3014 2688 3462 2688 
C 3936 2688 3987 2266 3987 1958 
L 3987 428 
C 3987 184 3962 153 3552 153 
L 3552 -13 
C 3706 0 3987 0 4154 0 
C 4320 0 4608 0 4762 -13 
L 4762 153 
C 4352 153 4326 178 4326 428 
L 4326 1933 
z
" transform="scale(0.015625)"/>
       <path id="CMR17-73" d="M 1978 2697 
C 1978 2813 1971 2819 1933 2819 
C 1907 2819 1901 2813 1824 2717 
C 1805 2691 1747 2626 1728 2601 
C 1523 2819 1235 2819 1126 2819 
C 416 2819 160 2447 160 2076 
C 160 1498 813 1365 998 1325 
C 1402 1243 1542 1217 1677 1101 
C 1760 1025 1901 884 1901 654 
C 1901 384 1747 38 1158 38 
C 602 38 403 460 288 1021 
C 269 1110 269 1117 218 1117 
C 166 1117 160 1110 160 983 
L 160 63 
C 160 -51 166 -58 205 -58 
C 237 -58 243 -51 275 0 
C 314 57 410 211 448 276 
C 576 103 800 -64 1158 -64 
C 1792 -64 2131 283 2131 784 
C 2131 1112 1958 1285 1875 1362 
C 1683 1561 1459 1606 1190 1657 
C 838 1735 390 1825 390 2217 
C 390 2383 480 2737 1126 2737 
C 1811 2737 1850 2094 1862 1888 
C 1869 1856 1901 1849 1920 1849 
C 1978 1849 1978 1869 1978 1978 
L 1978 2697 
z
" transform="scale(0.015625)"/>
       <path id="CMR17-75" d="M 1882 2693 
L 1882 2528 
C 2259 2528 2317 2489 2317 2186 
L 2317 1032 
C 2317 500 2029 38 1555 38 
C 1030 38 986 348 986 678 
L 986 2763 
L 211 2693 
L 211 2528 
C 467 2528 640 2528 646 2274 
L 646 1058 
C 646 633 646 361 813 183 
C 896 101 1056 -64 1517 -64 
C 2061 -64 2272 377 2323 506 
L 2330 506 
L 2330 -63 
L 3091 -63 
L 3091 128 
C 2714 128 2656 166 2656 473 
L 2656 2763 
L 1882 2693 
z
" transform="scale(0.015625)"/>
       <path id="CMR17-72" d="M 960 1497 
C 960 2112 1222 2688 1702 2688 
C 1747 2688 1792 2682 1837 2662 
C 1837 2662 1696 2617 1696 2452 
C 1696 2298 1818 2234 1914 2234 
C 1990 2234 2131 2279 2131 2458 
C 2131 2663 1926 2790 1709 2790 
C 1222 2790 1011 2317 947 2093 
L 941 2093 
L 941 2790 
L 198 2720 
L 198 2554 
C 576 2554 634 2515 634 2208 
L 634 428 
C 634 184 608 153 198 153 
L 198 -13 
C 352 0 646 0 813 0 
C 998 0 1325 0 1498 -13 
L 1498 153 
C 1037 153 960 153 960 440 
L 960 1497 
z
" transform="scale(0.015625)"/>
       <path id="CMR17-6e" d="M 2656 1933 
C 2656 2259 2592 2790 1837 2790 
C 1331 2790 1069 2400 973 2144 
L 966 2144 
L 966 2790 
L 211 2720 
L 211 2554 
C 589 2554 646 2515 646 2208 
L 646 428 
C 646 184 621 153 211 153 
L 211 -13 
C 365 0 646 0 813 0 
C 979 0 1267 0 1421 -13 
L 1421 153 
C 1011 153 986 178 986 428 
L 986 1658 
C 986 2247 1344 2688 1792 2688 
C 2266 2688 2317 2266 2317 1958 
L 2317 428 
C 2317 184 2291 153 1882 153 
L 1882 -13 
C 2035 0 2317 0 2483 0 
C 2650 0 2938 0 3091 -13 
L 3091 153 
C 2682 153 2656 178 2656 428 
L 2656 1933 
z
" transform="scale(0.015625)"/>
       <path id="CMR17-74" d="M 966 2560 
L 1862 2560 
L 1862 2725 
L 966 2725 
L 966 3904 
L 851 3904 
C 838 3245 614 2668 70 2668 
L 70 2560 
L 627 2560 
L 627 771 
C 627 650 627 -64 1370 -64 
C 1747 -64 1965 306 1965 777 
L 1965 1140 
L 1850 1140 
L 1850 783 
C 1850 344 1677 51 1408 51 
C 1222 51 966 178 966 758 
L 966 2560 
z
" transform="scale(0.015625)"/>
       <path id="CMR17-6f" d="M 2758 1356 
C 2758 2176 2163 2816 1466 2816 
C 768 2816 173 2176 173 1356 
C 173 551 768 -64 1466 -64 
C 2163 -64 2758 551 2758 1356 
z
M 1466 51 
C 1165 51 909 230 762 480 
C 602 767 582 1126 582 1408 
C 582 1677 595 2010 762 2298 
C 890 2509 1139 2714 1466 2714 
C 1754 2714 1997 2554 2150 2330 
C 2349 2029 2349 1607 2349 1408 
C 2349 1158 2336 775 2163 467 
C 1984 173 1709 51 1466 51 
z
" transform="scale(0.015625)"/>
       <path id="CMR17-6c" d="M 979 4396 
L 218 4326 
L 218 4160 
C 595 4160 653 4122 653 3817 
L 653 426 
C 653 184 627 153 218 153 
L 218 -13 
C 371 0 653 0 813 0 
C 979 0 1261 0 1414 -13 
L 1414 153 
C 1005 153 979 178 979 426 
L 979 4396 
z
" transform="scale(0.015625)"/>
       <path id="CMR17-79" d="M 2496 2197 
C 2656 2586 2944 2586 3034 2586 
L 3034 2752 
C 2912 2752 2752 2752 2630 2752 
C 2496 2752 2285 2752 2157 2758 
L 2157 2592 
C 2400 2573 2406 2394 2406 2343 
C 2406 2280 2394 2248 2362 2171 
L 1664 449 
L 902 2306 
C 870 2382 870 2426 870 2433 
C 870 2573 1018 2586 1171 2586 
L 1171 2758 
C 1018 2752 742 2752 582 2752 
C 410 2752 205 2752 64 2758 
L 64 2586 
C 410 2586 448 2554 531 2350 
L 1485 15 
C 1197 -738 1030 -1178 627 -1178 
C 557 -1178 397 -1159 282 -1044 
C 429 -1031 493 -942 493 -833 
C 493 -725 416 -629 288 -629 
C 147 -629 77 -725 77 -840 
C 77 -1095 339 -1280 627 -1280 
C 998 -1280 1229 -922 1357 -604 
L 2496 2197 
z
" transform="scale(0.015625)"/>
      </defs>
      <use xlink:href="#CMR17-57" transform="scale(0.996264)"/>
      <use xlink:href="#CMR17-65" transform="translate(87.289395 0) scale(0.996264)"/>
      <use xlink:href="#CMR17-61" transform="translate(127.775055 0) scale(0.996264)"/>
      <use xlink:href="#CMR17-6b" transform="translate(173.465532 0) scale(0.996264)"/>
      <use xlink:href="#CMR17-6d" transform="translate(251.834414 0) scale(0.996264)"/>
      <use xlink:href="#CMR17-65" transform="translate(328.754004 0) scale(0.996264)"/>
      <use xlink:href="#CMR17-61" transform="translate(369.239665 0) scale(0.996264)"/>
      <use xlink:href="#CMR17-73" transform="translate(414.930142 0) scale(0.996264)"/>
      <use xlink:href="#CMR17-75" transform="translate(450.731479 0) scale(0.996264)"/>
      <use xlink:href="#CMR17-72" transform="translate(501.626849 0) scale(0.996264)"/>
      <use xlink:href="#CMR17-65" transform="translate(536.907617 0) scale(0.996264)"/>
      <use xlink:href="#CMR17-6d" transform="translate(577.393277 0) scale(0.996264)"/>
      <use xlink:href="#CMR17-65" transform="translate(654.312867 0) scale(0.996264)"/>
      <use xlink:href="#CMR17-6e" transform="translate(694.798528 0) scale(0.996264)"/>
      <use xlink:href="#CMR17-74" transform="translate(743.091444 0) scale(0.996264)"/>
      <use xlink:href="#CMR17-73" transform="translate(778.372211 0) scale(0.996264)"/>
      <use xlink:href="#CMR17-6f" transform="translate(844.249515 0) scale(0.996264)"/>
      <use xlink:href="#CMR17-6e" transform="translate(889.939992 0) scale(0.996264)"/>
      <use xlink:href="#CMR17-6c" transform="translate(940.835362 0) scale(0.996264)"/>
      <use xlink:href="#CMR17-79" transform="translate(965.706421 0) scale(0.996264)"/>
     </g>
    </g>
    <g id="line2d_76">
     <path d="M 146.395972 206.848269 
L 155.395972 206.848269 
L 164.395972 206.848269 
" style="fill: none; stroke: #8ca252; stroke-width: 3; stroke-linecap: square"/>
    </g>
    <g id="text_16">
     <!-- With strong measurement -->
     <g transform="translate(173.995972 211.048269) scale(0.12 -0.12)">
      <defs>
       <path id="CMR17-69" d="M 992 3909 
C 992 4049 877 4170 730 4170 
C 589 4170 467 4056 467 3909 
C 467 3769 582 3648 730 3648 
C 870 3648 992 3763 992 3909 
z
M 243 2706 
L 243 2541 
C 602 2541 653 2502 653 2197 
L 653 427 
C 653 184 627 153 218 153 
L 218 -13 
C 371 0 646 0 806 0 
C 960 0 1222 0 1370 -13 
L 1370 153 
C 992 153 979 191 979 420 
L 979 2776 
L 243 2706 
z
" transform="scale(0.015625)"/>
       <path id="CMR17-68" d="M 2656 1933 
C 2656 2259 2592 2790 1837 2790 
C 1312 2790 1056 2368 979 2157 
L 973 2157 
L 973 4396 
L 211 4326 
L 211 4160 
C 589 4160 646 4122 646 3817 
L 646 426 
C 646 184 621 153 211 153 
L 211 -13 
C 365 0 646 0 813 0 
C 979 0 1267 0 1421 -13 
L 1421 153 
C 1011 153 986 178 986 428 
L 986 1658 
C 986 2247 1344 2688 1792 2688 
C 2266 2688 2317 2266 2317 1958 
L 2317 428 
C 2317 184 2291 153 1882 153 
L 1882 -13 
C 2035 0 2317 0 2483 0 
C 2650 0 2938 0 3091 -13 
L 3091 153 
C 2682 153 2656 178 2656 428 
L 2656 1933 
z
" transform="scale(0.015625)"/>
       <path id="CMR17-67" d="M 710 1164 
C 832 1068 1043 960 1299 960 
C 1805 960 2240 1357 2240 1888 
C 2240 2054 2189 2310 1997 2509 
C 2176 2692 2438 2752 2586 2752 
C 2611 2752 2650 2752 2682 2734 
C 2656 2728 2598 2703 2598 2605 
C 2598 2527 2656 2471 2739 2471 
C 2835 2471 2886 2533 2886 2614 
C 2886 2731 2790 2854 2586 2854 
C 2330 2854 2106 2738 1926 2580 
C 1734 2753 1504 2816 1299 2816 
C 794 2816 358 2419 358 1888 
C 358 1522 570 1292 634 1228 
C 442 1004 442 743 442 711 
C 442 545 506 302 723 168 
C 390 85 128 -169 128 -486 
C 128 -943 736 -1280 1466 -1280 
C 2170 -1280 2803 -956 2803 -479 
C 2803 384 1856 384 1363 384 
C 1216 384 954 384 922 391 
C 723 423 589 602 589 826 
C 589 883 589 1024 710 1164 
z
M 1299 1068 
C 736 1068 736 1760 736 1889 
C 736 2016 736 2708 1299 2708 
C 1862 2708 1862 2016 1862 1889 
C 1862 1760 1862 1068 1299 1068 
z
M 1466 -1171 
C 826 -1171 384 -835 384 -486 
C 384 -289 493 -105 634 -4 
C 794 104 858 104 1293 104 
C 1818 104 2547 104 2547 -486 
C 2547 -835 2106 -1171 1466 -1171 
z
" transform="scale(0.015625)"/>
      </defs>
      <use xlink:href="#CMR17-57" transform="scale(0.996264)"/>
      <use xlink:href="#CMR17-69" transform="translate(95.09665 0) scale(0.996264)"/>
      <use xlink:href="#CMR17-74" transform="translate(119.967708 0) scale(0.996264)"/>
      <use xlink:href="#CMR17-68" transform="translate(155.248476 0) scale(0.996264)"/>
      <use xlink:href="#CMR17-73" transform="translate(236.219812 0) scale(0.996264)"/>
      <use xlink:href="#CMR17-74" transform="translate(272.02115 0) scale(0.996264)"/>
      <use xlink:href="#CMR17-72" transform="translate(307.301918 0) scale(0.996264)"/>
      <use xlink:href="#CMR17-6f" transform="translate(342.582686 0) scale(0.996264)"/>
      <use xlink:href="#CMR17-6e" transform="translate(388.273163 0) scale(0.996264)"/>
      <use xlink:href="#CMR17-67" transform="translate(439.168532 0) scale(0.996264)"/>
      <use xlink:href="#CMR17-6d" transform="translate(514.934976 0) scale(0.996264)"/>
      <use xlink:href="#CMR17-65" transform="translate(591.854566 0) scale(0.996264)"/>
      <use xlink:href="#CMR17-61" transform="translate(632.340226 0) scale(0.996264)"/>
      <use xlink:href="#CMR17-73" transform="translate(678.030703 0) scale(0.996264)"/>
      <use xlink:href="#CMR17-75" transform="translate(713.832041 0) scale(0.996264)"/>
      <use xlink:href="#CMR17-72" transform="translate(764.727411 0) scale(0.996264)"/>
      <use xlink:href="#CMR17-65" transform="translate(800.008179 0) scale(0.996264)"/>
      <use xlink:href="#CMR17-6d" transform="translate(840.493839 0) scale(0.996264)"/>
      <use xlink:href="#CMR17-65" transform="translate(917.413429 0) scale(0.996264)"/>
      <use xlink:href="#CMR17-6e" transform="translate(957.899089 0) scale(0.996264)"/>
      <use xlink:href="#CMR17-74" transform="translate(1006.192005 0) scale(0.996264)"/>
     </g>
    </g>
   </g>
  </g>
 </g>
 <defs>
  <clipPath id="pefedd12abe">
   <rect x="53.847859" y="12.96" width="264.392141" height="211.212864"/>
  </clipPath>
 </defs>
</svg>
